<svg width="120" height="80" fill="none" xmlns="http://www.w3.org/2000/svg"><path d="M103.779 36.462a.155.155 0 01-.153-.154v-1.039h-.297a.137.137 0 01-.135-.135c0-.076.063-.136.135-.136h.899a.136.136 0 010 .271h-.298v1.039a.155.155 0 01-.151.154zm2.221 0a.155.155 0 01-.151-.154v-.904l-.386 1.002a.09.09 0 01-.082.056.087.087 0 01-.081-.056l-.387-1.002v.904a.152.152 0 01-.148.154.156.156 0 01-.155-.154v-1.073a.25.25 0 01.248-.253.25.25 0 01.233.164l.29.756.293-.756a.246.246 0 01.231-.164.25.25 0 01.249.253v1.073a.155.155 0 01-.154.154zm-81.236-1.92c0-.52.162-1.001.435-1.4a1.979 1.979 0 00-1.427 1.895v1.588l.992.05V34.54zm-.992 10.917a1.98 1.98 0 001.428 1.896 2.46 2.46 0 01-.436-1.4v-2.978h-.992v2.482zm2.48-2.481h-.991v2.978c0 .9.604 1.653 1.427 1.895a2.463 2.463 0 01-.435-1.4v-3.473zm0-8.933c0-.52.162-1 .436-1.4a1.98 1.98 0 00-1.427 1.896V36.7l.992.05v-2.705zm-11.188-.636a2.472 2.472 0 00-1.218 2.124v9.43a2.47 2.47 0 001.217 2.124 2.953 2.953 0 01-.225-1.132V34.54c0-.4.081-.782.226-1.132zm1.264.14c0-.4.08-.783.224-1.132a2.47 2.47 0 00-1.217 2.124v11.415c0 1.066.676 1.967 1.621 2.318a2.957 2.957 0 01-.628-1.822V33.55z" fill="#EE2841"/><path d="M28.734 32.06a1.985 1.985 0 00-1.984 1.984v3.227l-4.963-.248v-3.475a2.482 2.482 0 00-4.963 0v12.904a2.48 2.48 0 004.963 0v-3.97h4.963v3.97a1.985 1.985 0 103.969 0V34.045a1.985 1.985 0 00-1.985-1.985zM45.87 44.146V40.47h-5.36v3.675c0 .392-.32.726-.712.726a.74.74 0 01-.741-.726v-8.383c0-.392.335-.726.727-.726.406 0 .726.334.726.726v3.414h5.36v-3.414c0-.392.32-.726.727-.726.406 0 .726.334.726.726v8.383c0 .392-.32.726-.726.726a.728.728 0 01-.727-.726zm2.48-2.862c0-2.02 1.366-3.675 3.544-3.675 2.194 0 3.545 1.655 3.545 3.675 0 2.034-1.351 3.69-3.545 3.69-2.178 0-3.544-1.656-3.544-3.69zm5.724 0c0-1.322-.77-2.513-2.18-2.513-1.395 0-2.178 1.19-2.178 2.513 0 1.336.783 2.528 2.178 2.528 1.41 0 2.18-1.192 2.18-2.528zm8.965-3.675c2.106 0 3.414 1.642 3.414 3.486 0 .393-.277.625-.77.625h-4.78c.101 1.19.974 2.18 2.383 2.18.595 0 1.22-.19 1.743-.568.073-.058.174-.072.29-.072a.52.52 0 01.523.523.517.517 0 01-.231.436c-.698.508-1.527.755-2.456.755-2.092 0-3.632-1.482-3.632-3.69 0-2.034 1.468-3.675 3.516-3.675zm-2.15 3.167h4.285c-.028-.93-.654-2.092-2.135-2.092-1.41 0-2.078 1.133-2.15 2.092zm6.396 3.442V35.69a.65.65 0 01.654-.653.66.66 0 01.653.653v8.528a.66.66 0 01-.904.605.651.651 0 01-.403-.605zm2.148-.494c0-.32.247-.566.567-.566a.6.6 0 01.32.101c.537.393 1.234.668 1.974.668.988 0 1.51-.406 1.51-1.002 0-.697-.798-.93-1.699-1.132-1.19-.277-2.584-.597-2.584-2.107 0-1.118.957-2.077 2.672-2.077.974 0 1.743.29 2.339.726a.55.55 0 01.232.436c0 .29-.247.536-.537.536a.5.5 0 01-.29-.101c-.45-.334-1.06-.537-1.729-.537-.886 0-1.439.349-1.439.915 0 .61.756.814 1.627 1.017 1.22.276 2.674.61 2.674 2.222 0 1.206-.988 2.151-2.833 2.151-.974 0-1.845-.247-2.557-.785a.576.576 0 01-.247-.465zm7.352-.58c.494 0 .915.407.915.9a.93.93 0 01-.915.916.918.918 0 01-.902-.916c0-.493.408-.9.902-.9zm7.702-1.86c0-2.02 1.365-3.675 3.545-3.675 2.194 0 3.545 1.655 3.545 3.675 0 2.034-1.351 3.69-3.545 3.69-2.18 0-3.545-1.656-3.545-3.69zm5.725 0c0-1.322-.771-2.513-2.18-2.513-1.395 0-2.18 1.19-2.18 2.513 0 1.336.785 2.528 2.18 2.528 1.409 0 2.18-1.192 2.18-2.528zm12.182-1.555v4.49a.664.664 0 01-.668.653.648.648 0 01-.64-.653v-4.097c0-.814-.363-1.206-1.22-1.206-.712 0-1.41.8-1.744 1.31v3.993a.651.651 0 01-.653.653.66.66 0 01-.654-.653v-4.097c0-.814-.349-1.206-1.235-1.206-.683 0-1.365.85-1.714 1.357v3.946a.66.66 0 01-.654.653.651.651 0 01-.654-.653v-5.855c0-.363.291-.654.64-.654.363 0 .668.29.668.654v.407c.29-.437 1.22-1.163 2.266-1.163 1.061 0 1.685.552 1.903 1.308.407-.654 1.356-1.307 2.388-1.307 1.293 0 1.971.712 1.971 2.12z" fill="#EE2841"/><path d="M81.617 37.608c1.003 0 1.7.32 2.237.814a.586.586 0 11-.77.886c-.407-.377-.856-.538-1.41-.538-1.38 0-2.265 1.06-2.265 2.513 0 1.453.887 2.482 2.266 2.528.931.033 1.869-.645 2.623-1.834.093-.148.23-.423.343-.566.214-.27.366-.14.492-.01.23.241.228.814.078 1.095-.423.79-.78 1.159-1.185 1.555-.564.547-1.406.922-2.409.922-2.12 0-3.573-1.583-3.573-3.69 0-2.106 1.452-3.675 3.573-3.675zm-21.161 6.116c0 .247-.708.8-1.217 1.046-.29.14-.581.203-1.002.203-1.104 0-1.671-.624-1.671-1.728V38.93h-.668a.593.593 0 01-.582-.581c0-.305.277-.567.582-.567h.668v-1.336a.654.654 0 01.654-.654.66.66 0 01.653.654v1.336h.916a.58.58 0 01.58.567c0 .32-.261.581-.58.581h-.916v4.024c0 .494.233.857.683.857.8 0 1.429-1.241 1.783-1.241.334 0 .117.834.117 1.154" fill="#EE2841"/></svg>