<svg width="120" height="80" fill="none" xmlns="http://www.w3.org/2000/svg"><path d="M61.395 41.419l-3.502-8.806-3.482 8.747a84.983 84.983 0 016.984.059zm29.065 8.927c-7.505-3.263-15.945-5.68-25.862-6.496l3.02 7.334H65.28l-2.981-7.491a90.12 90.12 0 00-8.786-.07l-3.01 7.561h-2.338l3.062-7.44c-10.52.69-19.48 3.182-27.349 6.6v-.462c5.252-2.931 10.446-5.12 16.053-6.549v-4.501l-6.314-9.695h2.346l5.01 8.055 5.014-8.054h2.343l-6.313 9.694-.002 4.008c3.21-.697 6.564-1.157 10.15-1.376l5.205-12.647h1.043l5.246 12.748c3.52.281 6.82.8 9.985 1.558V30.824h-5.16v-1.687h12.453v1.688H75.78v12.852c5.088 1.42 9.861 3.488 14.68 6.21v.46zm8.344-21.209H86.352v1.688h5.16v15.2h2.134v-15.2h5.158v-1.688zm-71.48 16.889l-2.136.001v-8.333h-9.207v8.331h-2.135V29.137h2.135v6.872h9.207v-6.872h2.135v16.889zm77.112-15.573c-.101-.06-.266-.09-.493-.09h-.348v.846h.368c.175 0 .303-.019.39-.053a.363.363 0 00.241-.363c0-.17-.054-.282-.158-.34zm-.439-.365c.286 0 .497.027.633.081.24.1.358.299.358.59 0 .206-.075.36-.225.459a.877.877 0 01-.336.11c.185.028.315.104.401.227a.662.662 0 01.124.362v.168c0 .055.002.113.006.172 0 .042.006.084.02.123l.015.029h-.381l-.007-.023-.004-.028-.01-.075V32.1c0-.267-.075-.444-.22-.53-.088-.05-.237-.075-.455-.075h-.321v.915h-.411v-2.321h.813zm-1.243-.12a1.75 1.75 0 00-.398.59 1.743 1.743 0 00-.133.699c0 .506.175.937.528 1.295a1.722 1.722 0 001.286.535c.504 0 .933-.177 1.288-.535.353-.357.529-.79.529-1.295a1.764 1.764 0 00-.529-1.29 1.766 1.766 0 00-1.288-.533 1.745 1.745 0 00-1.283.533zm2.778 2.785a2.025 2.025 0 01-1.495.622 2.026 2.026 0 01-1.496-.622 2.055 2.055 0 01-.612-1.499c0-.58.206-1.08.619-1.492a2.03 2.03 0 011.489-.617c.586 0 1.084.206 1.495.618a2.013 2.013 0 01.621 1.492c0 .583-.206 1.082-.621 1.498z" fill="#4B77A9"/></svg>