<svg width="120" height="80" fill="none" xmlns="http://www.w3.org/2000/svg"><path d="M42.175 60.874v-.696h-2.518V55.24h-.796v5.633h3.314zm49.765-4.97v4.97h.795v-4.97h1.922v-.663h-4.639v.663h1.922zm4.34 3.71s.597.597 1.425.597c.53 0 .96-.298.96-.828 0-1.226-2.716-.961-2.716-2.684 0-.862.762-1.557 1.822-1.557s1.59.563 1.59.563l-.364.663s-.53-.498-1.226-.498c-.596 0-1.027.365-1.027.829 0 1.16 2.717.861 2.717 2.684 0 .861-.663 1.59-1.79 1.59-1.192 0-1.855-.729-1.855-.729l.464-.63zM19.71 32.777h-5.864v16.799h1.922v-6.461h3.943c3.147 0 5.235-2.088 5.235-5.202 0-3.081-2.12-5.136-5.235-5.136zm-3.942 1.756h3.744c2.154 0 3.479 1.292 3.479 3.38 0 2.12-1.325 3.446-3.512 3.446h-3.711v-6.826zm18.09-1.756l-6.162 16.799h2.02l1.89-5.269h6.427l1.889 5.269h2.02l-6.129-16.799h-1.955zm3.48 9.94l-5.269-.166 2.32-5.732c.198-.497.43-1.225.563-1.722.1.463.298 1.225.464 1.722l1.921 5.898zm17.029-.53c1.856-.596 3.049-2.353 3.049-4.54 0-2.02-.961-3.677-2.585-4.373-.662-.298-1.424-.464-3.147-.464H46.68v16.8h1.921v-6.96h3.943l3.744 6.958h2.187l-3.711-6.859c-.199-.265-.298-.464-.398-.563zm1.127-4.506c0 1.988-1.193 3.214-3.114 3.214h-3.778v-6.362h3.181c1.292 0 1.822.133 2.286.398.928.464 1.425 1.458 1.425 2.75zm16.964-4.904l-4.44 7.19h-2.584v-7.19h-1.922v16.799h1.922V41.69h2.584l4.705 7.886h2.253l-5.367-8.814 5.036-7.985h-2.187zM14.641 57.693v-2.451h-.795v5.632h.795v-2.485h2.916v2.485h.795v-5.633h-.795v2.452h-2.916zm8.549-2.551c1.623 0 2.882 1.259 2.882 2.882 0 1.657-1.259 2.949-2.882 2.949-1.624 0-2.883-1.292-2.883-2.949 0-1.623 1.26-2.882 2.883-2.882zm0 5.102c1.16 0 2.087-.96 2.087-2.22 0-1.226-.928-2.154-2.087-2.154-1.16 0-2.088.928-2.088 2.154 0 1.26.961 2.22 2.088 2.22zm5.964-4.34v4.97h.795v-4.97h1.955v-.663h-4.672v.663h1.922zm7.753 4.97v-.696h-2.618v-1.822h2.021v-.663h-2.02v-1.789h2.484v-.663h-3.28v5.633h3.413zm6.991-1.26s.596.597 1.424.597c.53 0 .961-.298.961-.828 0-1.226-2.717-.961-2.717-2.684 0-.862.762-1.557 1.822-1.557s1.59.563 1.59.563l-.364.663s-.53-.498-1.226-.498c-.596 0-1.027.365-1.027.829 0 1.16 2.717.861 2.717 2.684 0 .861-.663 1.59-1.789 1.59-1.193 0-1.855-.729-1.855-.729l.464-.63zm9.144-1.788s-.729-.265-.729-1.26c0-.927.73-1.457 1.723-1.457.298 0 .696.1.696.1l-.199.629s-.232-.033-.43-.033c-.564 0-.995.298-.995.861 0 .365.166.895 1.028.895h1.06v-.762h.762v.762h.762v.696h-.762v.762c0 1.259-.73 1.988-1.955 1.988-1.16 0-1.955-.73-1.955-1.69 0-.663.365-1.26.994-1.491zm.96 2.418c.73 0 1.16-.397 1.16-1.292v-.729H54.07c-.795 0-1.259.365-1.259.994.033.564.497 1.027 1.193 1.027zm7.025-5.002h1.723c.596 0 .828.033 1.06.132.564.199.961.795.961 1.524s-.397 1.325-1.027 1.524c0 0 .066.066.166.265l1.192 2.187h-.894l-1.193-2.253h-1.193v2.253h-.795v-5.633zm1.922 2.683c.63 0 .994-.397.994-1.027 0-.43-.166-.696-.464-.861-.166-.067-.331-.133-.762-.133h-.895v2.021h1.127zm7.389 2.949v-.696H67.72v-1.822h2.021v-.663H67.72v-1.789h2.485v-.663h-3.28v5.633h3.413zm19.051-14.015v-3.446l2.551 1.259v3.446l-2.551-1.26zm3.346-2.187l2.551-1.26v3.447l-2.55 1.259v-3.446zm-6.693.497v-3.446l2.552 1.259v3.446l-2.552-1.26zm10.04-2.154l2.55-1.259v3.446l-2.55 1.259v-3.446zm-13.386.497v-3.446l2.551 1.26v3.445l-2.551-1.259zm16.732-2.187l2.551-1.259v3.446l-2.551 1.26v-3.447zm-10.04 1.193v-3.446l2.552 1.26v3.445l-2.551-1.259zm3.347-2.153l2.551-1.26v3.446l-2.55 1.26v-3.446zM79.35 41.822V38.41l2.55 1.259v3.446l-2.55-1.293zm23.457-2.153l2.552-1.26v3.447l-2.552 1.259v-3.446zm-16.765 1.193v-3.446l2.552 1.259v3.446l-2.552-1.26zm10.04-2.187l2.55-1.26v3.447l-2.55 1.259v-3.446zm-13.386.497v-3.413l2.551 1.26v3.445l-2.551-1.292zm16.732-2.154l2.551-1.259v3.446l-2.551 1.259v-3.446zm-10.04 1.193v-3.446l2.552 1.26v3.445l-2.551-1.26zm3.347-2.187l2.551-1.259v3.446l-2.55 1.259v-3.446zM79.35 37.515V34.07l2.55 1.26v3.445l-2.55-1.259zm23.457-2.154l2.552-1.258v3.445l-2.552 1.26V35.36zm-16.765 1.16v-3.446l2.552 1.26v3.445l-2.552-1.259zm10.04-2.154l2.55-1.258v3.445l-2.55 1.26v-3.447zm-13.386.498v-3.446l2.551 1.259v3.446l-2.551-1.26zm16.732-2.187l2.551-1.26v3.447l-2.551 1.259v-3.446zm-10.04 1.193v-3.446l2.552 1.259v3.446l-2.551-1.26zm3.347-2.154l2.551-1.26v3.447l-2.55 1.259v-3.446zm-6.693.497v-3.446l2.552 1.26v3.445l-2.552-1.26zm10.04-2.187l2.55-1.259v3.446l-2.55 1.259v-3.446zm-13.386.497v-3.446l2.551 1.26v3.445l-2.551-1.259zm16.732-2.154l2.551-1.259v3.446l-2.551 1.26V28.37zm-10.04 1.16v-3.413l2.552 1.26v3.445l-2.551-1.292zm3.347-2.154l2.551-1.259v3.446l-2.55 1.26v-3.447zm-6.693.497v-3.445l2.552 1.259v3.446l-2.552-1.26zm10.04-2.153l2.55-1.26v3.447l-2.55 1.259V25.72zm-6.693-.497v-3.446l2.551 1.26v3.445l-2.551-1.26zm3.346-2.154l2.551-1.259v3.446l-2.55 1.26v-3.447zm-2.85-1.921l2.453-1.226 2.451 1.226-2.451 1.226-2.452-1.226zm2.453-2.12l-3.744 1.855v3.942l-3.347-1.656v4.34l-3.346-1.657V34.5l-3.347-1.657v9.543l13.42 6.692v4.076h.794v-4.142l13.419-6.693v-9.542l-3.346 1.657v-8.615l-3.347 1.657v-4.307l-3.346 1.656v-3.942l-3.81-1.856zM72.325 59.614s.597.597 1.425.597c.53 0 .961-.298.961-.828 0-1.226-2.717-.961-2.717-2.684 0-.862.762-1.557 1.822-1.557s1.59.563 1.59.563l-.364.663s-.53-.498-1.226-.498c-.596 0-1.027.365-1.027.829 0 1.16 2.717.861 2.717 2.684 0 .861-.662 1.59-1.789 1.59-1.193 0-1.855-.729-1.855-.729l.463-.63zm7.654-4.472c1.624 0 2.883 1.259 2.883 2.882 0 1.657-1.26 2.949-2.883 2.949s-2.883-1.292-2.883-2.949c0-1.623 1.26-2.882 2.883-2.882zm0 5.102c1.16 0 2.087-.96 2.087-2.22 0-1.226-.927-2.154-2.087-2.154-1.16 0-2.087.928-2.087 2.154 0 1.26.927 2.22 2.087 2.22zm4.837-5.002h1.723c.597 0 .829.033 1.06.132.564.199.961.795.961 1.524s-.397 1.325-1.027 1.524c0 0 .067.066.166.265l1.193 2.187h-.895l-1.193-2.253h-1.192v2.253h-.796v-5.633zm1.922 2.683c.63 0 .994-.397.994-1.027 0-.43-.166-.696-.464-.861-.165-.067-.331-.133-.762-.133h-.894v2.021h1.126z" fill="#0E7755"/></svg>