<svg width="120" height="80" fill="none" xmlns="http://www.w3.org/2000/svg"><path d="M27.421 30.36v19.28h5.712V34.645l-5.712-4.285zm-2.262 1.691V49.64h1.187V31.15l-1.188.901zM22.895 49.64h1.188V32.897l-1.188.845V49.64zm-2.262 0h1.187V34.588l-1.188.902v14.15zm13.574-10.655V49.64h5.713v-6.37l-5.713-4.285zM18.37 40.677v8.963h1.188v-9.81l-1.188.847zm-2.262 8.963h1.187v-8.118l-1.187.846v7.272zm-2.263 0h1.188v-6.427l-1.188.902v5.525z" fill="#EB0029"/><path d="M54.626 41.07c-1.695 0-2.77-.957-2.77-2.818v-3.608h1.413v3.608c0 1.015.51 1.579 1.414 1.579.848 0 1.358-.564 1.358-1.579v-3.608h1.414v3.552c0 1.973-1.132 2.875-2.829 2.875zm7.014 0a3.92 3.92 0 01-2.658-1.014l.793-.958c.565.45 1.187.733 1.922.733.565 0 .904-.226.904-.564v-.056c0-.339-.225-.508-1.3-.79-1.244-.338-2.093-.732-2.093-1.972 0-1.185.904-1.917 2.206-1.917.962 0 1.753.282 2.375.789l-.735 1.071c-.508-.395-1.075-.62-1.64-.62-.51 0-.792.225-.792.564 0 .394.283.563 1.357.845 1.302.338 2.037.79 2.037 1.917 0 1.296-.962 1.973-2.377 1.973zm8.257-.055V38.42h-2.601v2.594h-1.413v-6.37h1.413v2.48h2.601v-2.48h1.415v6.37h-1.415zm24.322 0l-2.997-4.003v4.003h-1.357v-6.37h1.3l2.999 4.058v-4.059h1.357v6.37H94.22zM66.788 49.64l-1.98-2.706-.735.789v1.917H62.66v-6.37h1.414v2.818l2.602-2.819h1.695l-2.601 2.706 2.716 3.665h-1.697zm3.28 0v-6.37h4.75v1.24h-3.393v1.296h2.999v1.24h-3V48.4h3.452v1.24h-4.809zm13.574 0h1.357v-6.37h-1.357v6.37zm3.451 0v-6.37h4.752v1.24h-3.337v1.296h2.94v1.24h-2.94V48.4H91.9v1.24h-4.807zm6.901 0v-6.37h1.413v5.13h3.169v1.24h-4.582zm8.766 0h-2.489v-6.37h2.489c2.037 0 3.394 1.409 3.394 3.156v.057c0 1.804-1.357 3.157-3.394 3.157zm1.924-3.157c0-1.128-.792-1.917-1.924-1.917h-1.075V48.4h1.075c1.132 0 1.924-.79 1.924-1.917zM47.727 39.83c-1.19 0-1.98-.902-1.98-1.973V37.8c0-1.07.736-1.973 1.866-1.973.622-.056 1.189.226 1.584.677l.905-1.072c-.622-.563-1.47-.958-2.49-.901-1.979 0-3.392 1.522-3.336 3.326.057 1.86 1.472 3.27 3.451 3.213 1.018 0 1.922-.45 2.487-1.128l-.96-.901c-.34.45-.904.732-1.527.789zm30.711-5.187h1.527v6.37h-1.357v-4.17l-1.81 2.705h-.055l-1.811-2.706v4.172h-1.3v-6.37h1.47l1.696 2.65 1.64-2.65zm5.77 0l-2.715 6.37h1.471l.565-1.465h2.715l.567 1.466h1.47l-2.715-6.37H84.21zm-.169 3.665l.848-2.03.85 2.03h-1.698zm-26.981 4.96l-2.714 6.37h1.414l.622-1.409h2.66l.62 1.41h1.414l-2.714-6.37h-1.302zm-.225 3.721l.847-2.086.85 2.086h-1.697zm21.437-2.424v1.353h2.997v1.297H78.27v2.424h-1.414v-6.37h4.864v1.296h-3.45zM52.817 43.27l-1.47 4.454-1.47-4.453h-1.36l-1.47 4.453-1.47-4.453h-1.526l2.317 6.37h1.414l1.415-4.341 1.47 4.34h1.357l2.32-6.37h-1.528zm51.64-3.833l.735-.845-.848-.902-.679.732-.792-.958c.509-.282.849-.846.849-1.41-.057-.901-.735-1.521-1.64-1.521-.452 0-.849.169-1.132.45a1.574 1.574 0 00-.452 1.128c.057.507.34.902.565 1.184-.735.282-1.3 1.071-1.245 1.86a2.103 2.103 0 002.094 1.973c.623 0 1.3-.338 1.753-.845l.567.733h1.64l-1.415-1.579zm-1.527-.056c-.34.394-.678.563-1.018.563a.832.832 0 01-.849-.845c-.055-.282.17-.677.792-.959l1.075 1.24zm-.792-2.65c-.17-.169-.395-.394-.453-.62 0-.225.113-.451.453-.507.282 0 .452.225.452.507 0 .282-.283.507-.452.62z" fill="#717271"/></svg>