<svg width="120" height="80" fill="none" xmlns="http://www.w3.org/2000/svg"><path d="M67.49 32.562c0 .979-.248 2.114-.967 3.12h2.032v-15.69H62.06V26.4c3.512 1.089 5.43 3.34 5.43 6.16z" fill="#213E99"/><path d="M56.264 25.842c1.464 0 2.828.343 3.871.62-2.209-.39-5.634.173-7.403 1.568v7.651h6.497v-8.705a8.19 8.19 0 013.115 1.265v7.44h1.412c-1.327 1.5-3.812 2.413-5.954 2.077v.314c6.174.488 8.79-2.443 8.79-5.737 0-3.882-3.64-6.152-7.363-6.613v-5.73h-6.497v5.793c-4.207.844-8.325 3.341-8.325 7.482 0 6.373 8.903 10.32 16.657 10.32 11.777 0 20.837-5.689 20.837-13.681 0-9.671-13.084-16.573-23.36-16.573-11.775 0-20.446 7.481-20.446 15.474 0 4.137 2.325 7.605 5.254 10.022l.222-.148c-2.32-1.928-4.413-4.932-4.413-9.06.612-8.745 11.391-13.672 20.984-13.672 6.783 0 18.97 1.568 18.97 12.911 0 5.916-6.322 13.61-19.601 13.61-6.8 0-12.081-3.64-12.081-8.877 0-4.53 3.547-7.75 8.834-7.75zM31.106 66.35v-.894h2.277v-7.727h-6.082v7.727h2.336v.894H21.25v-.894h2.131V49.718h-2.13v-.894h8.386v.894h-2.336v6.975h6.082v-6.975h-2.277v-.894h8.302v.894h-2.134v15.738h2.134v.894h-8.302zm11.518-17.526h3.806v2.077h-3.806v-2.077zM40.752 66.35v-.894h2.046V54.678h-2.046v-.894h5.822v11.672h1.904v.894h-7.726zm8.545 0v-.894h2.104V47.412h-2.104v-.892h5.908v18.936h1.988v.894h-7.896zm13.818 0c-2.075 0-3.197-1.067-3.197-2.71v-8.962H57.87v-.894h2.048v-4.986c1.154 0 2.362.026 3.544 0v4.986h2.94v.894h-2.94v10.778h3v.894h-3.347zm17.984-6.573c-.317-4.756-4.293-6.398-7.034-6.398-3.081 0-7.232 1.93-7.232 6.599 0 3.375 2.479 6.689 7.32 6.689 4.352 0 6.142-2.912 6.573-4.094.345-.864.432-1.874.373-2.796zm-7.034 6.168c-1.324 0-2.13-.662-2.507-1.383-.23-.433-.546-1.064-.546-4.64 0-2.652.057-5.708 3.025-5.708 1.182 0 2.074.49 2.566 1.587.172.402.376.807.402 4.004.029 2.943.029 6.14-2.94 6.14zm17.192.405v-.894h1.673v-7.408c0-1.672 0-3.314-1.845-3.314-1.039 0-2.739 1.036-3.143 2.74-.145.517-.116 1.066-.116 2.447v5.535h1.902v.894h-7.722v-.894h2.045V54.678h-2.046v-.894h5.82v1.901c.635-.806 1.155-1.386 2.394-1.873a5.893 5.893 0 012.278-.461c.23 0 .92 0 1.727.23 2.421.718 2.537 2.565 2.537 3.892v7.983h1.989v.894h-7.493z" fill="#213E99"/></svg>