<svg width="36" height="40" fill="none" xmlns="http://www.w3.org/2000/svg"><path d="M19.127 7.672h-4.646c-.657 0-1.172.537-1.172 1.171v16.689a1.172 1.172 0 002.344 0v-6.084c1.087-.006 2.679-.014 3.475-.014 1.57 0 3.06-.608 4.193-1.712 1.148-1.117 1.78-2.598 1.78-4.17 0-1.57-.632-3.051-1.78-4.169a5.984 5.984 0 00-4.194-1.711zm0 9.418c-.79 0-2.36.008-3.449.014-.02-3.65-.008-2.422-.022-7.089h3.471c1.968 0 3.63 1.62 3.63 3.538 0 1.917-1.662 3.537-3.63 3.537z" fill="#24AB70"/><path d="M30.153 5.034A17.075 17.075 0 0018 0 17.075 17.075 0 005.847 5.034c-9.438 9.437-4.955 25.705 8.09 28.857v4.156c0 1.077.877 1.953 1.954 1.953h4.218a1.955 1.955 0 001.953-1.953V33.89c13.059-3.155 17.522-19.426 8.091-28.857zM19.72 37.656h-3.44V34.29c1.14.113 2.298.113 3.438 0v3.366zm.961-5.866c-9.036 1.65-17.525-5.242-17.525-14.602C3.156 9.002 9.815 2.344 18 2.344c8.185 0 14.844 6.659 14.844 14.844 0 7.165-5.103 13.314-12.164 14.602z" fill="#24AB70"/></svg>