<svg width="40" height="40" fill="none" xmlns="http://www.w3.org/2000/svg"><g clip-path="url(#clip0)" fill="#24AB70"><path d="M1.493 28.58c15.202-4.32 20.758 4.412 37.632.007a1.172 1.172 0 00-.592-2.267c-3.313.864-6.184 1.184-8.785 1.188l-3.397-5.476a5.253 5.253 0 007.928.314 5.22 5.22 0 001.424-3.76c-.144-4.703-5.906-6.814-9.08-3.44a5.253 5.253 0 00-.945 5.802l-4.648-7.492 6.898-1.991a3.467 3.467 0 002.067-5.021 3.452 3.452 0 00-3.99-1.642L15.563 7.816c-2.708.781-3.92 3.93-2.434 6.326l3.157 5.087c-2.276 1.413-9.493 5.889-9.57 5.942a34.687 34.687 0 00-5.862 1.155 1.172 1.172 0 00.64 2.255zm26.838-11.828a2.91 2.91 0 114.24 3.988 2.91 2.91 0 01-4.114.127 2.909 2.909 0 01-.126-4.115zm-9.437 2.238l-3.775-6.084a1.907 1.907 0 011.092-2.838l10.444-3.014a1.124 1.124 0 11.623 2.159l-8.385 2.42a1.172 1.172 0 00-.67 1.744l8.694 14.012c-5.468-.459-9.911-2.108-15.537-2.358l7.136-4.428a1.17 1.17 0 00.378-1.613zm19.638 12.798c-16.144 4.215-21.809-4.505-37.68.007a1.172 1.172 0 00.64 2.255c15.202-4.322 20.758 4.41 37.632.006a1.172 1.172 0 10-.592-2.267z"/></g><defs><clipPath id="clip0"><path fill="#fff" d="M0 0h40v40H0z"/></clipPath></defs></svg>