<svg width="40" height="40" fill="none" xmlns="http://www.w3.org/2000/svg"><g clip-path="url(#clip0)" fill="#24AB70"><path d="M19.922 36.445a2.578 2.578 0 100-5.156 2.578 2.578 0 000 5.156zM39.58 12.099C34.446 6.589 27.492 3.555 20 3.555c-7.492 0-14.445 3.034-19.58 8.544a1.563 1.563 0 002.286 2.13C7.243 9.361 13.385 6.68 20 6.68s12.757 2.682 17.294 7.55a1.559 1.559 0 002.209.078 1.563 1.563 0 00.078-2.208z"/><path d="M33.843 18.551c-3.796-3.824-8.712-5.93-13.843-5.93-5.133 0-10.05 2.106-13.844 5.93a1.562 1.562 0 002.219 2.202c3.203-3.229 7.332-5.007 11.625-5.007 4.292 0 8.42 1.778 11.625 5.007.305.308.707.462 1.11.462a1.563 1.563 0 001.109-2.663zm-6.253 6.472c-2.033-2.014-4.947-3.265-7.605-3.265h-.115c-2.658 0-5.572 1.25-7.605 3.265a1.562 1.562 0 002.2 2.22c1.447-1.434 3.569-2.36 5.405-2.36h.115c1.837 0 3.958.926 5.405 2.36a1.562 1.562 0 102.2-2.22z"/></g><defs><clipPath id="clip0"><path fill="#fff" d="M0 0h40v40H0z"/></clipPath></defs></svg>