<svg width="40" height="40" fill="none" xmlns="http://www.w3.org/2000/svg"><path d="M10.547 7.11h18.906c.646 0 1.172.525 1.172 1.171s-.526 1.172-1.172 1.172h-7.11a3.52 3.52 0 00-3.515 3.516v1.172h2.344v-1.172c0-.646.526-1.172 1.172-1.172h7.11a3.52 3.52 0 003.515-3.516 3.52 3.52 0 00-3.516-3.515H10.547a1.173 1.173 0 01-1.172-1.172V2.422H7.031v1.172a3.52 3.52 0 003.516 3.515zm21.07 21.093h3.695A4.693 4.693 0 0040 23.516a4.693 4.693 0 00-4.688-4.688H32.97v-2.344H7.03v5.938c0 3.005 1.017 5.846 2.856 8.125H0v2.344h5.135l2.344 4.687H32.52l2.344-4.687H40v-2.344h-9.887a12.86 12.86 0 001.504-2.344zm3.695-7.031a2.346 2.346 0 012.344 2.344 2.346 2.346 0 01-2.343 2.343H32.51c.301-1.104.459-2.258.459-3.437v-1.25h2.343zm-25.937 1.25v-3.594h21.25v3.594a10.56 10.56 0 01-3.78 8.125h-13.69a10.562 10.562 0 01-3.78-8.125zm21.698 12.812H8.927l-1.171-2.343h24.489l-1.172 2.343z" fill="#24AB70"/></svg>