<svg width="40" height="40" fill="none" xmlns="http://www.w3.org/2000/svg"><g clip-path="url(#clip0)" fill="#24AB70"><path d="M5 25c-2.757 0-5-2.243-5-5s2.243-5 5-5 5 2.243 5 5-2.243 5-5 5zm0-8.333A3.337 3.337 0 001.667 20 3.337 3.337 0 005 23.333 3.337 3.337 0 008.333 20 3.337 3.337 0 005 16.667zM20 25c-2.757 0-5-2.243-5-5s2.243-5 5-5 5 2.243 5 5-2.243 5-5 5zm0-8.333A3.337 3.337 0 0016.667 20 3.337 3.337 0 0020 23.333 3.337 3.337 0 0023.333 20 3.337 3.337 0 0020 16.667zM35 25c-2.757 0-5-2.243-5-5s2.243-5 5-5 5 2.243 5 5-2.243 5-5 5zm0-8.333A3.337 3.337 0 0031.667 20 3.337 3.337 0 0035 23.333 3.337 3.337 0 0038.333 20 3.337 3.337 0 0035 16.667z"/></g><defs><clipPath id="clip0"><path fill="#fff" d="M0 0h40v40H0z"/></clipPath></defs></svg>