<svg width="40" height="28" fill="none" xmlns="http://www.w3.org/2000/svg"><path d="M37.391 6.174h-1.739a2.58 2.58 0 00-.87.16V3.565A2.612 2.612 0 0032.175.957h-1.74a2.612 2.612 0 00-2.608 2.608v6.087H12.174V3.565A2.612 2.612 0 009.565.957H7.826a2.612 2.612 0 00-2.609 2.608v2.769a2.58 2.58 0 00-.87-.16H2.61A2.612 2.612 0 000 8.783v10.434a2.612 2.612 0 002.609 2.61h1.739c.306 0 .596-.064.87-.16v2.768a2.612 2.612 0 002.608 2.609h1.74a2.612 2.612 0 002.608-2.61v-6.086h15.652v6.087a2.612 2.612 0 002.609 2.609h1.739a2.612 2.612 0 002.609-2.61v-2.768c.273.098.563.16.87.16h1.738A2.612 2.612 0 0040 19.217V8.783a2.612 2.612 0 00-2.609-2.61zM5.217 19.217c0 .48-.39.87-.87.87H2.61a.87.87 0 01-.87-.87V8.783c0-.48.39-.87.87-.87h1.739c.479 0 .87.39.87.87v10.434zm5.218 5.218c0 .479-.39.87-.87.87H7.826a.872.872 0 01-.87-.87V3.565c0-.479.391-.87.87-.87h1.74c.478 0 .869.391.869.87v20.87zm17.391-7.826H12.174V11.39h15.652v5.218zm5.218-7.826v15.652c0 .479-.391.87-.87.87h-1.74a.872.872 0 01-.869-.87V3.565c0-.479.39-.87.87-.87h1.739c.479 0 .87.391.87.87v5.218zm5.217 10.434c0 .48-.39.87-.87.87h-1.739a.871.871 0 01-.87-.87V8.783c0-.48.391-.87.87-.87h1.74c.478 0 .869.39.869.87v10.434z" fill="#24AB70"/></svg>