<svg width="40" height="32" fill="none" xmlns="http://www.w3.org/2000/svg"><path d="M37.522.885h-25.29a2.481 2.481 0 00-2.478 2.478V5.57L7.357 3.172l-4.06 4.06L5.14 9.077 0 17.149l5.22 8.158H3.247A2.777 2.777 0 00.474 28.08v3.034h13.829V28.08a2.777 2.777 0 00-2.774-2.774h-3.49l-5.221-8.161 3.443-5.41a6.023 6.023 0 001.75 4.688l.985.985.758-.758v5.282a2.481 2.481 0 002.478 2.479h7.089l-.419 4.328h-1.96v2.375h15.87V28.74h-1.96l-.42-4.328h7.09A2.481 2.481 0 0040 21.933V3.363A2.481 2.481 0 0037.522.885zM11.529 27.682a.4.4 0 01.399.399v.659H2.85v-.66a.4.4 0 01.398-.398h8.28zM8.28 7.633c-.021.02-.043.038-.065.057a6.004 6.004 0 00-.202.193l-.004.003-.003.004c-.066.066-.13.134-.192.202-.02.022-.04.044-.058.066l-.083.093-1.018-1.018.701-.702L8.375 7.55l-.094.083zm.81 6.323a3.676 3.676 0 01-.111-3.39l.01-.022c.019-.037.037-.074.057-.11l.016-.03.057-.102.02-.034.06-.096.026-.038.06-.089.032-.044.06-.08.042-.054.055-.067.062-.07.042-.049a3.651 3.651 0 01.24-.238l.038-.034a3.4 3.4 0 01.097-.083l.042-.034.1-.076.04-.03a3.714 3.714 0 01.266-.175l.024-.014c.305-.18.632-.311.968-.394l.016-.005c.053-.012.106-.024.16-.034l.013-.003c.054-.01.109-.02.163-.028l.01-.001a3.74 3.74 0 01.341-.033h.01c.054-.003.109-.004.163-.004h.015c.153 0 .306.01.458.029l.01.001a3.662 3.662 0 01.406.077c.022.006.045.01.067.017.06.016.119.033.178.052l.092.032a3.691 3.691 0 01.307.124c.034.015.068.03.102.047l.095.05.08.042-2.494 2.495-2.495 2.495zM21.288 28.74l.42-4.328h6.339l.419 4.328h-7.178zm16.337-6.807a.103.103 0 01-.103.104h-25.29a.103.103 0 01-.103-.104v-2.211h25.496v2.211zm0-4.587H12.129v-3.07l5.404-5.404-.985-.986a6.002 6.002 0 00-2.039-1.34l-.02-.007a5.913 5.913 0 00-.254-.094l-.075-.024a6.014 6.014 0 00-.2-.062 2.758 2.758 0 00-.13-.035l-.147-.038-.176-.039-.102-.02a6.23 6.23 0 00-.216-.037l-.063-.01a5.834 5.834 0 00-.247-.03l-.033-.002a6.037 6.037 0 00-.271-.02h-.01a6.043 6.043 0 00-.436-.007V3.363c0-.057.046-.103.103-.103h25.29c.056 0 .103.047.103.103v13.983z" fill="#24AB70"/></svg>