<svg width="16" height="16" fill="none" xmlns="http://www.w3.org/2000/svg"><path d="M8.003 0c-3.34 0-4.317.003-4.507.02-.685.056-1.112.164-1.577.396A3.195 3.195 0 001 1.089C.493 1.616.185 2.264.074 3.035c-.055.374-.07.45-.073 2.362-.002.637 0 1.475 0 2.6 0 3.338.003 4.314.02 4.504.055.667.16 1.087.38 1.546a3.37 3.37 0 002.185 1.784c.33.085.694.132 1.162.154.198.009 2.217.015 4.238.015 2.02 0 4.04-.002 4.234-.012.541-.026.856-.068 1.203-.158a3.35 3.35 0 002.184-1.788c.218-.448.328-.884.378-1.516.01-.138.015-2.336.015-4.531 0-2.196-.005-4.39-.016-4.527-.05-.643-.16-1.075-.384-1.532a3.173 3.173 0 00-.685-.938c-.53-.506-1.177-.813-1.948-.925-.374-.054-.448-.07-2.36-.073H8.002z" fill="url(#paint0_radial)"/><path d="M8.003 0c-3.34 0-4.317.003-4.507.02-.685.056-1.112.164-1.577.396A3.195 3.195 0 001 1.089C.493 1.616.185 2.264.074 3.035c-.055.374-.07.45-.073 2.362-.002.637 0 1.475 0 2.6 0 3.338.003 4.314.02 4.504.055.667.16 1.087.38 1.546a3.37 3.37 0 002.185 1.784c.33.085.694.132 1.162.154.198.009 2.217.015 4.238.015 2.02 0 4.04-.002 4.234-.012.541-.026.856-.068 1.203-.158a3.35 3.35 0 002.184-1.788c.218-.448.328-.884.378-1.516.01-.138.015-2.336.015-4.531 0-2.196-.005-4.39-.016-4.527-.05-.643-.16-1.075-.384-1.532a3.173 3.173 0 00-.685-.938c-.53-.506-1.177-.813-1.948-.925-.374-.054-.448-.07-2.36-.073H8.002z" fill="url(#paint1_radial)"/><path d="M7.999 2.093c-1.604 0-1.806.007-2.436.035-.629.029-1.058.129-1.433.275-.389.15-.718.352-1.047.681a2.9 2.9 0 00-.681 1.046c-.147.376-.246.806-.275 1.434-.028.63-.035.832-.035 2.437 0 1.604.007 1.805.035 2.435.03.63.129 1.059.275 1.434.15.389.353.718.681 1.047.328.329.658.53 1.046.682.376.146.805.245 1.434.274.63.029.831.036 2.435.036s1.805-.007 2.435-.036c.629-.029 1.059-.128 1.434-.274a2.894 2.894 0 001.046-.682 2.9 2.9 0 00.682-1.047c.145-.375.245-.805.274-1.434.029-.63.036-.83.036-2.435s-.007-1.806-.036-2.436c-.03-.63-.129-1.059-.274-1.434a2.9 2.9 0 00-.682-1.047 2.886 2.886 0 00-1.046-.681c-.377-.146-.806-.246-1.435-.275-.63-.028-.83-.035-2.435-.035h.002zm-.53 1.064h.53c1.577 0 1.764.006 2.387.034.575.027.888.123 1.096.204.276.107.472.235.679.442.207.206.335.403.442.679.08.208.177.52.203 1.097.029.623.035.81.035 2.386 0 1.577-.006 1.764-.035 2.387-.026.576-.122.889-.203 1.097a1.825 1.825 0 01-.442.678 1.827 1.827 0 01-.679.442c-.208.082-.52.178-1.096.204-.623.028-.81.034-2.387.034s-1.764-.006-2.387-.034c-.576-.027-.888-.123-1.097-.204a1.83 1.83 0 01-.679-.442 1.831 1.831 0 01-.442-.679c-.08-.208-.177-.52-.203-1.096-.029-.623-.034-.81-.034-2.388 0-1.578.005-1.764.034-2.387.026-.576.122-.888.203-1.097a1.83 1.83 0 01.442-.68c.207-.206.404-.334.68-.441.207-.082.52-.178 1.096-.204.545-.025.756-.032 1.857-.033v.001zm3.683.981a.709.709 0 100 1.418.709.709 0 000-1.418zm-3.153.829A3.034 3.034 0 108 11.034a3.034 3.034 0 000-6.067zm0 1.064a1.97 1.97 0 110 3.939 1.97 1.97 0 010-3.939z" fill="#fff"/><defs><radialGradient id="paint0_radial" cx="0" cy="0" r="1" gradientUnits="userSpaceOnUse" gradientTransform="matrix(0 -15.8572 14.7484 0 4.25 17.232)"><stop stop-color="#FD5"/><stop offset=".1" stop-color="#FD5"/><stop offset=".5" stop-color="#FF543E"/><stop offset="1" stop-color="#C837AB"/></radialGradient><radialGradient id="paint1_radial" cx="0" cy="0" r="1" gradientUnits="userSpaceOnUse" gradientTransform="matrix(1.39122 6.95036 -28.6497 5.73466 -2.68 1.152)"><stop stop-color="#3771C8"/><stop offset=".128" stop-color="#3771C8"/><stop offset="1" stop-color="#60F" stop-opacity="0"/></radialGradient></defs></svg>